<svg width="19" height="19" viewBox="0 0 19 19" fill="none" xmlns="http://www.w3.org/2000/svg">
<path d="M18.085 0.530016C17.7923 0.237291 17.3177 0.237277 17.025 0.529984L9.306 8.248L1.5965 0.536629C1.30356 0.243621 0.828519 0.243705 0.535686 0.536815C0.243098 0.829679 0.243181 1.30424 0.535871 1.597L8.246 9.309L0.529969 17.025C0.237195 17.3178 0.23697 17.7924 0.529468 18.0855C0.822381 18.3789 1.29781 18.3791 1.59097 18.0859L9.306 10.369L17.032 18.094C17.3247 18.3867 17.7993 18.3867 18.092 18.094C18.3847 17.8013 18.3847 17.3267 18.092 17.034L10.368 9.309L18.0851 1.59005C18.3778 1.2973 18.3777 0.822728 18.085 0.530016Z" fill="#CED2DA"/>
</svg>
