<svg width="1440" height="88" viewBox="0 0 1440 88" fill="none" xmlns="http://www.w3.org/2000/svg">
<rect width="1440" height="87.142" transform="translate(0 0.428986)" fill="white"/>
<path d="M251.76 30.312V40H241.022V30.312H243.052V38.376H245.432V30.312H247.35V38.376H249.744V30.312H251.76ZM261.113 40H259.083V36.108C259.083 34.7827 259.181 33.5413 259.377 32.384L256.325 40H253.805V30.312H255.835V34.246C255.835 35.03 255.807 35.6833 255.751 36.206C255.705 36.7193 255.635 37.2887 255.541 37.914L258.649 30.312H261.113V40ZM273.601 35.1C273.601 36.4907 273.199 37.5453 272.397 38.264C271.594 38.9733 270.479 39.3513 269.051 39.398V40.532H267.049V39.384C265.602 39.3187 264.482 38.936 263.689 38.236C262.895 37.5267 262.499 36.4953 262.499 35.142C262.499 33.7513 262.9 32.7013 263.703 31.992C264.505 31.2733 265.621 30.8907 267.049 30.844V29.794H269.051V30.858C270.497 30.9233 271.617 31.3107 272.411 32.02C273.204 32.72 273.601 33.7467 273.601 35.1ZM268.967 38.082C269.853 38.026 270.497 37.76 270.899 37.284C271.3 36.808 271.501 36.08 271.501 35.1C271.501 34.1387 271.295 33.42 270.885 32.944C270.474 32.468 269.835 32.2067 268.967 32.16V38.082ZM264.599 35.142C264.599 36.1033 264.804 36.822 265.215 37.298C265.625 37.774 266.265 38.0353 267.133 38.082V32.16C266.246 32.216 265.602 32.482 265.201 32.958C264.799 33.434 264.599 34.162 264.599 35.142ZM280.917 30.312L280.693 31.922H278.243V40H276.185V31.922H273.609V30.312H280.917Z" fill="#F4511E"/>
<path d="M244.018 47.312C245.278 47.312 246.253 47.5733 246.944 48.096C247.644 48.6187 247.994 49.398 247.994 50.434C247.994 51.5167 247.649 52.3333 246.958 52.884C246.267 53.4253 245.343 53.696 244.186 53.696H243.08V57H241.022V47.312H244.018ZM244.018 52.184C244.615 52.184 245.073 52.0487 245.39 51.778C245.707 51.5073 245.866 51.0593 245.866 50.434C245.866 49.342 245.241 48.796 243.99 48.796H243.08V52.184H244.018ZM251.406 47.312V57H249.348V47.312H251.406ZM259.483 47.312V48.894L255.143 55.334H259.553L259.329 57H252.735V55.446L257.159 48.936H253.183V47.312H259.483ZM266.948 47.312V48.894L262.608 55.334H267.018L266.794 57H260.2V55.446L264.624 48.936H260.648V47.312H266.948ZM273.599 57L273.053 54.83H270.015L269.469 57H267.327L270.309 47.312H272.815L275.783 57H273.599ZM270.407 53.304H272.661L271.527 48.838L270.407 53.304Z" fill="#F4511E"/>
<path d="M301 46.6667L299.666 48M303.333 52.3333L301.666 54.2267M308.7 35.5387C304.728 36.373 301.085 38.3453 298.215 41.2149C295.346 44.0844 293.373 47.7271 292.538 51.6987M310.066 40.4C308.705 40.7713 307.547 41.6682 306.847 42.8935C306.146 44.1187 305.962 45.5719 306.333 46.9333C306.704 48.2948 307.601 49.453 308.826 50.1531C310.052 50.8532 311.505 51.038 312.866 50.6667M314.285 55.6427C314.349 55.8704 314.35 56.1109 314.29 56.3395C314.23 56.5682 314.111 56.7767 313.944 56.9439C313.776 57.111 313.568 57.2308 313.339 57.2907C313.11 57.3507 312.87 57.3489 312.642 57.2853L288.642 50.6187C288.474 50.5717 288.316 50.4919 288.178 50.3839C288.04 50.276 287.925 50.1419 287.839 49.9893C287.753 49.8368 287.697 49.6688 287.676 49.4949C287.655 49.321 287.669 49.1447 287.716 48.976C288.927 44.6163 291.244 40.6438 294.444 37.4443C297.643 34.2448 301.616 31.927 305.976 30.716C306.144 30.669 306.321 30.6556 306.495 30.6767C306.668 30.6978 306.836 30.753 306.989 30.839C307.141 30.9251 307.276 31.0404 307.384 31.1782C307.492 31.3161 307.571 31.4739 307.618 31.6427L314.285 55.6427Z" stroke="#F4511E" stroke-width="2" stroke-linecap="round" stroke-linejoin="round"/>
<path fill-rule="evenodd" clip-rule="evenodd" d="M390 40C390 42.2091 388.209 44 386 44C383.791 44 382 42.2091 382 40C382 37.7909 383.791 36 386 36C388.209 36 390 37.7909 390 40ZM388.5 40C388.5 41.3807 387.381 42.5 386 42.5C384.619 42.5 383.5 41.3807 383.5 40C383.5 38.6193 384.619 37.5 386 37.5C387.381 37.5 388.5 38.6193 388.5 40Z" fill="#141C24"/>
<path fill-rule="evenodd" clip-rule="evenodd" d="M378 49.772V52H394V49.772C394 48.1046 392.966 46.6121 391.404 46.0267L391.267 45.9751C387.871 44.7017 384.129 44.7017 380.733 45.9751L380.596 46.0267C379.034 46.6121 378 48.1046 378 49.772ZM381.26 47.3796C384.316 46.2335 387.684 46.2335 390.74 47.3796L390.878 47.4312C391.854 47.7971 392.5 48.7299 392.5 49.772V50.5H379.5V49.772C379.5 48.7299 380.146 47.7971 381.122 47.4312L381.26 47.3796Z" fill="#141C24"/>
<path d="M424.375 38.3636V50H422.625V39.8636H417.148V50H415.398V38.3636H424.375ZM426.923 53.2727V41.2727H428.582V42.6875H428.724C428.823 42.5057 428.965 42.2955 429.151 42.0568C429.336 41.8182 429.594 41.6099 429.923 41.4318C430.253 41.25 430.688 41.1591 431.23 41.1591C431.935 41.1591 432.563 41.3371 433.116 41.6932C433.67 42.0492 434.103 42.5625 434.418 43.233C434.736 43.9034 434.895 44.7102 434.895 45.6534C434.895 46.5966 434.738 47.4053 434.423 48.0796C434.109 48.75 433.677 49.2671 433.128 49.6307C432.579 49.9905 431.952 50.1705 431.247 50.1705C430.717 50.1705 430.283 50.0814 429.946 49.9034C429.613 49.7254 429.351 49.5171 429.162 49.2784C428.973 49.0398 428.827 48.8277 428.724 48.6421H428.622V53.2727H426.923ZM428.588 45.6364C428.588 46.25 428.677 46.7879 428.855 47.25C429.033 47.7121 429.291 48.0739 429.628 48.3352C429.965 48.5928 430.378 48.7216 430.866 48.7216C431.374 48.7216 431.798 48.5871 432.139 48.3182C432.48 48.0455 432.738 47.6761 432.912 47.2102C433.09 46.7443 433.179 46.2197 433.179 45.6364C433.179 45.0606 433.092 44.5436 432.918 44.0852C432.747 43.6269 432.49 43.2652 432.145 43C431.804 42.7349 431.378 42.6023 430.866 42.6023C430.374 42.6023 429.957 42.7292 429.616 42.983C429.279 43.2367 429.024 43.5909 428.849 44.0455C428.675 44.5 428.588 45.0303 428.588 45.6364ZM440.474 50.1761C439.656 50.1761 438.942 49.9886 438.332 49.6136C437.723 49.2386 437.249 48.714 436.912 48.0398C436.575 47.3655 436.406 46.5777 436.406 45.6761C436.406 44.7708 436.575 43.9792 436.912 43.3011C437.249 42.6231 437.723 42.0966 438.332 41.7216C438.942 41.3466 439.656 41.1591 440.474 41.1591C441.293 41.1591 442.007 41.3466 442.616 41.7216C443.226 42.0966 443.7 42.6231 444.037 43.3011C444.374 43.9792 444.543 44.7708 444.543 45.6761C444.543 46.5777 444.374 47.3655 444.037 48.0398C443.7 48.714 443.226 49.2386 442.616 49.6136C442.007 49.9886 441.293 50.1761 440.474 50.1761ZM440.48 48.75C441.01 48.75 441.45 48.6099 441.798 48.3296C442.147 48.0492 442.404 47.6761 442.571 47.2102C442.741 46.7443 442.827 46.2311 442.827 45.6705C442.827 45.1136 442.741 44.6023 442.571 44.1364C442.404 43.6667 442.147 43.2898 441.798 43.0057C441.45 42.7216 441.01 42.5796 440.48 42.5796C439.946 42.5796 439.503 42.7216 439.151 43.0057C438.802 43.2898 438.543 43.6667 438.372 44.1364C438.205 44.6023 438.122 45.1136 438.122 45.6705C438.122 46.2311 438.205 46.7443 438.372 47.2102C438.543 47.6761 438.802 48.0492 439.151 48.3296C439.503 48.6099 439.946 48.75 440.48 48.75ZM450.195 52.9716V38.3636H451.893V52.9716H450.195ZM450.195 50.1761C449.577 50.1761 449.015 50.0701 448.507 49.858C448 49.6421 447.562 49.3352 447.195 48.9375C446.827 48.5398 446.543 48.0644 446.342 47.5114C446.145 46.9583 446.047 46.3466 446.047 45.6761C446.047 44.9981 446.145 44.3826 446.342 43.8296C446.543 43.2765 446.827 42.8011 447.195 42.4034C447.562 42.0057 448 41.6989 448.507 41.483C449.015 41.2671 449.577 41.1591 450.195 41.1591H450.615V50.1761H450.195ZM450.195 48.7443H450.433V42.5909H450.195C449.786 42.5909 449.429 42.6742 449.126 42.8409C448.823 43.0038 448.571 43.2292 448.371 43.5171C448.17 43.8011 448.018 44.1288 447.916 44.5C447.818 44.8712 447.768 45.2633 447.768 45.6761C447.768 46.2292 447.857 46.7386 448.036 47.2046C448.214 47.6667 448.482 48.0398 448.842 48.3239C449.202 48.6042 449.653 48.7443 450.195 48.7443ZM451.893 50.1761H451.467V41.1591H451.893C452.511 41.1591 453.073 41.2671 453.581 41.483C454.089 41.6989 454.524 42.0057 454.888 42.4034C455.255 42.8011 455.537 43.2765 455.734 43.8296C455.935 44.3826 456.036 44.9981 456.036 45.6761C456.036 46.3466 455.935 46.9583 455.734 47.5114C455.537 48.0644 455.255 48.5398 454.888 48.9375C454.524 49.3352 454.089 49.6421 453.581 49.858C453.073 50.0701 452.511 50.1761 451.893 50.1761ZM451.893 48.7443C452.303 48.7443 452.659 48.6648 452.962 48.5057C453.265 48.3428 453.517 48.1193 453.717 47.8352C453.918 47.5474 454.068 47.2197 454.166 46.8523C454.265 46.4811 454.314 46.089 454.314 45.6761C454.314 45.1269 454.225 44.6193 454.047 44.1534C453.873 43.6837 453.606 43.3068 453.246 43.0227C452.886 42.7349 452.435 42.5909 451.893 42.5909H451.649V48.7443H451.893ZM459.588 47.6193L463.435 41.2727H465.264V50H463.599V43.6477L459.77 50H457.923V41.2727H459.588V47.6193ZM466.861 50L466.855 48.5284H467.168C467.41 48.5284 467.613 48.4773 467.776 48.375C467.942 48.2689 468.079 48.0909 468.185 47.8409C468.291 47.5909 468.372 47.2462 468.429 46.8068C468.486 46.3636 468.527 45.8068 468.554 45.1364L468.707 41.2727H474.798V50H473.134V42.7386H470.281L470.145 45.7046C470.111 46.4242 470.037 47.053 469.923 47.5909C469.813 48.1288 469.652 48.5777 469.44 48.9375C469.228 49.2936 468.955 49.5606 468.622 49.7386C468.289 49.9129 467.884 50 467.406 50H466.861ZM478.342 44.2727H480.876C481.945 44.2727 482.767 44.5379 483.342 45.0682C483.918 45.5985 484.206 46.2822 484.206 47.1193C484.206 47.6648 484.077 48.1553 483.82 48.5909C483.562 49.0265 483.185 49.3712 482.689 49.625C482.193 49.875 481.589 50 480.876 50H477.064V41.2727H478.729V48.5341H480.876C481.365 48.5341 481.767 48.4072 482.081 48.1534C482.395 47.8958 482.553 47.5682 482.553 47.1705C482.553 46.75 482.395 46.4072 482.081 46.1421C481.767 45.8731 481.365 45.7386 480.876 45.7386H478.342V44.2727Z" fill="#344051"/>
<path d="M532.924 48.1238C533.238 47.8386 533.249 47.3492 532.949 47.0494L529.7 43.8V38.75C529.7 38.3358 529.364 38 528.95 38C528.536 38 528.2 38.3358 528.2 38.75V43.9858C528.2 44.251 528.305 44.5054 528.493 44.6929L531.899 48.0994C532.18 48.3797 532.631 48.3904 532.924 48.1238Z" fill="#141C24"/>
<path d="M529 54C527.633 54 526.342 53.7375 525.125 53.2125C523.908 52.6875 522.846 51.9708 521.938 51.0625C521.029 50.1542 520.312 49.0917 519.787 47.875C519.262 46.6583 519 45.3583 519 43.975C519 42.6083 519.262 41.3167 519.787 40.1C520.312 38.8833 521.029 37.825 521.938 36.925C522.846 36.025 523.908 35.3125 525.125 34.7875C526.342 34.2625 527.642 34 529.025 34C530.392 34 531.683 34.2625 532.9 34.7875C534.117 35.3125 535.175 36.025 536.075 36.925C536.975 37.825 537.688 38.8833 538.212 40.1C538.737 41.3167 539 42.6167 539 44C539 45.3667 538.737 46.6583 538.212 47.875C537.688 49.0917 536.975 50.1542 536.075 51.0625C535.175 51.9708 534.117 52.6875 532.9 53.2125C531.683 53.7375 530.383 54 529 54ZM529 52.5C531.367 52.5 533.375 51.6708 535.025 50.0125C536.675 48.3542 537.5 46.35 537.5 44C537.5 41.6333 536.675 39.625 535.025 37.975C533.375 36.325 531.367 35.5 529 35.5C526.65 35.5 524.646 36.325 522.988 37.975C521.329 39.625 520.5 41.6333 520.5 44C520.5 46.35 521.329 48.3542 522.988 50.0125C524.646 51.6708 526.65 52.5 529 52.5Z" fill="#141C24"/>
<path d="M562.17 50.1591C561.39 50.1591 560.693 50.0246 560.08 49.7557C559.47 49.4868 558.987 49.1136 558.631 48.6364C558.278 48.1553 558.089 47.5985 558.062 46.9659H559.847C559.869 47.3106 559.985 47.6099 560.193 47.8636C560.405 48.1136 560.682 48.3068 561.023 48.4432C561.364 48.5796 561.742 48.6477 562.159 48.6477C562.617 48.6477 563.023 48.5682 563.375 48.4091C563.731 48.25 564.009 48.0284 564.21 47.7443C564.411 47.4564 564.511 47.125 564.511 46.75C564.511 46.3599 564.411 46.0171 564.21 45.7216C564.013 45.4224 563.723 45.1875 563.341 45.0171C562.962 44.8466 562.504 44.7614 561.966 44.7614H560.983V43.3296H561.966C562.398 43.3296 562.777 43.2519 563.102 43.0966C563.432 42.9413 563.689 42.7254 563.875 42.4489C564.061 42.1686 564.153 41.8409 564.153 41.4659C564.153 41.1061 564.072 40.7936 563.909 40.5284C563.75 40.2595 563.523 40.0492 563.227 39.8977C562.936 39.7462 562.591 39.6705 562.193 39.6705C561.814 39.6705 561.46 39.7405 561.131 39.8807C560.805 40.0171 560.54 40.214 560.335 40.4716C560.131 40.7254 560.021 41.0303 560.006 41.3864H558.307C558.326 40.7576 558.511 40.2046 558.864 39.7273C559.22 39.25 559.689 38.8769 560.273 38.608C560.856 38.339 561.504 38.2046 562.216 38.2046C562.962 38.2046 563.606 38.3504 564.148 38.6421C564.693 38.9299 565.114 39.3144 565.409 39.7955C565.708 40.2765 565.856 40.803 565.852 41.375C565.856 42.0265 565.674 42.5796 565.307 43.0341C564.943 43.4886 564.458 43.7936 563.852 43.9489V44.0398C564.625 44.1572 565.223 44.464 565.648 44.9602C566.076 45.4564 566.288 46.072 566.284 46.8068C566.288 47.447 566.11 48.0208 565.75 48.5284C565.394 49.036 564.907 49.4356 564.29 49.7273C563.672 50.0152 562.966 50.1591 562.17 50.1591ZM570.994 50.1932C570.441 50.1932 569.941 50.0909 569.494 49.8864C569.047 49.678 568.693 49.3769 568.432 48.983C568.174 48.589 568.045 48.1061 568.045 47.5341C568.045 47.0417 568.14 46.6364 568.33 46.3182C568.519 46 568.775 45.7481 569.097 45.5625C569.419 45.3769 569.778 45.2368 570.176 45.1421C570.574 45.0474 570.979 44.9754 571.392 44.9261C571.915 44.8655 572.339 44.8163 572.665 44.7784C572.991 44.7367 573.227 44.6705 573.375 44.5796C573.523 44.4886 573.597 44.3409 573.597 44.1364V44.0966C573.597 43.6004 573.456 43.2159 573.176 42.9432C572.9 42.6705 572.487 42.5341 571.938 42.5341C571.366 42.5341 570.915 42.661 570.585 42.9148C570.259 43.1648 570.034 43.4432 569.909 43.75L568.312 43.3864C568.502 42.8561 568.778 42.428 569.142 42.1023C569.509 41.7727 569.932 41.5341 570.409 41.3864C570.886 41.2349 571.388 41.1591 571.915 41.1591C572.263 41.1591 572.633 41.2008 573.023 41.2841C573.417 41.3636 573.784 41.5114 574.125 41.7273C574.47 41.9432 574.752 42.2519 574.972 42.6534C575.191 43.0511 575.301 43.5682 575.301 44.2046V50H573.642V48.8068H573.574C573.464 49.0265 573.299 49.2424 573.08 49.4546C572.86 49.6667 572.578 49.8428 572.233 49.983C571.888 50.1231 571.475 50.1932 570.994 50.1932ZM571.364 48.8296C571.833 48.8296 572.235 48.7368 572.568 48.5511C572.905 48.3655 573.161 48.1231 573.335 47.8239C573.513 47.5208 573.602 47.197 573.602 46.8523V45.7273C573.542 45.7879 573.424 45.8447 573.25 45.8977C573.08 45.947 572.884 45.9905 572.665 46.0284C572.445 46.0625 572.231 46.0947 572.023 46.125C571.814 46.1515 571.64 46.1742 571.5 46.1932C571.17 46.2349 570.869 46.3049 570.597 46.4034C570.328 46.5019 570.112 46.6439 569.949 46.8296C569.79 47.0114 569.71 47.2538 569.71 47.5568C569.71 47.9773 569.866 48.2955 570.176 48.5114C570.487 48.7235 570.883 48.8296 571.364 48.8296ZM577.564 50V41.2727H579.263V44.9318H580.081L582.962 41.2727H585.064L581.683 45.5171L585.104 50H582.996L580.365 46.5114H579.263V50H577.564ZM588.963 50.1932C588.41 50.1932 587.91 50.0909 587.463 49.8864C587.016 49.678 586.662 49.3769 586.401 48.983C586.143 48.589 586.014 48.1061 586.014 47.5341C586.014 47.0417 586.109 46.6364 586.298 46.3182C586.488 46 586.743 45.7481 587.065 45.5625C587.387 45.3769 587.747 45.2368 588.145 45.1421C588.543 45.0474 588.948 44.9754 589.361 44.9261C589.884 44.8655 590.308 44.8163 590.634 44.7784C590.959 44.7367 591.196 44.6705 591.344 44.5796C591.491 44.4886 591.565 44.3409 591.565 44.1364V44.0966C591.565 43.6004 591.425 43.2159 591.145 42.9432C590.868 42.6705 590.455 42.5341 589.906 42.5341C589.334 42.5341 588.884 42.661 588.554 42.9148C588.228 43.1648 588.003 43.4432 587.878 43.75L586.281 43.3864C586.471 42.8561 586.747 42.428 587.111 42.1023C587.478 41.7727 587.901 41.5341 588.378 41.3864C588.855 41.2349 589.357 41.1591 589.884 41.1591C590.232 41.1591 590.601 41.2008 590.991 41.2841C591.385 41.3636 591.753 41.5114 592.094 41.7273C592.438 41.9432 592.721 42.2519 592.94 42.6534C593.16 43.0511 593.27 43.5682 593.27 44.2046V50H591.611V48.8068H591.543C591.433 49.0265 591.268 49.2424 591.048 49.4546C590.829 49.6667 590.546 49.8428 590.202 49.983C589.857 50.1231 589.444 50.1932 588.963 50.1932ZM589.332 48.8296C589.802 48.8296 590.204 48.7368 590.537 48.5511C590.874 48.3655 591.13 48.1231 591.304 47.8239C591.482 47.5208 591.571 47.197 591.571 46.8523V45.7273C591.51 45.7879 591.393 45.8447 591.219 45.8977C591.048 45.947 590.853 45.9905 590.634 46.0284C590.414 46.0625 590.2 46.0947 589.991 46.125C589.783 46.1515 589.609 46.1742 589.469 46.1932C589.139 46.2349 588.838 46.3049 588.565 46.4034C588.296 46.5019 588.08 46.6439 587.918 46.8296C587.759 47.0114 587.679 47.2538 587.679 47.5568C587.679 47.9773 587.834 48.2955 588.145 48.5114C588.455 48.7235 588.851 48.8296 589.332 48.8296ZM595.016 47.6932H596.754C596.777 48.0492 596.938 48.3239 597.237 48.5171C597.54 48.7102 597.932 48.8068 598.413 48.8068C598.902 48.8068 599.319 48.7027 599.663 48.4943C600.008 48.2822 600.18 47.9546 600.18 47.5114C600.18 47.2462 600.114 47.0152 599.982 46.8182C599.853 46.6174 599.669 46.4621 599.43 46.3523C599.196 46.2424 598.917 46.1875 598.595 46.1875H597.175V44.8523H598.595C599.076 44.8523 599.436 44.7424 599.675 44.5227C599.913 44.303 600.033 44.0284 600.033 43.6989C600.033 43.3428 599.904 43.0568 599.646 42.8409C599.393 42.6212 599.038 42.5114 598.584 42.5114C598.122 42.5114 597.737 42.6155 597.43 42.8239C597.124 43.0284 596.963 43.2936 596.947 43.6193H595.232C595.243 43.1307 595.391 42.7027 595.675 42.3352C595.963 41.964 596.349 41.6761 596.834 41.4716C597.322 41.2633 597.877 41.1591 598.499 41.1591C599.146 41.1591 599.707 41.2633 600.18 41.4716C600.654 41.6799 601.019 41.9678 601.277 42.3352C601.538 42.7027 601.669 43.125 601.669 43.6023C601.669 44.0833 601.525 44.4773 601.237 44.7841C600.953 45.0871 600.582 45.3049 600.124 45.4375V45.5284C600.461 45.5511 600.76 45.6534 601.021 45.8352C601.283 46.0171 601.487 46.2576 601.635 46.5568C601.783 46.8561 601.857 47.1951 601.857 47.5739C601.857 48.108 601.709 48.5701 601.413 48.9602C601.122 49.3504 600.716 49.6515 600.197 49.8636C599.682 50.072 599.093 50.1761 598.43 50.1761C597.786 50.1761 597.209 50.0758 596.697 49.875C596.19 49.6705 595.786 49.3826 595.487 49.0114C595.192 48.6402 595.035 48.2008 595.016 47.6932ZM604.889 44.2727H607.423C608.491 44.2727 609.313 44.5379 609.889 45.0682C610.465 45.5985 610.753 46.2822 610.753 47.1193C610.753 47.6648 610.624 48.1553 610.366 48.5909C610.109 49.0265 609.732 49.3712 609.236 49.625C608.74 49.875 608.135 50 607.423 50H603.611V41.2727H605.276V48.5341H607.423C607.912 48.5341 608.313 48.4072 608.628 48.1534C608.942 47.8958 609.099 47.5682 609.099 47.1705C609.099 46.75 608.942 46.4072 608.628 46.1421C608.313 45.8731 607.912 45.7386 607.423 45.7386H604.889V44.2727ZM611.991 50V41.2727H613.69V50H611.991Z" fill="#344051"/>
<path d="M1096.86 35.8319H1098.54C1099.29 35.8319 1099.67 35.8319 1099.95 36.0362C1100.24 36.2405 1100.36 36.5972 1100.59 37.3107L1101.18 39.0748" stroke="#141C24" stroke-width="1.5" stroke-linecap="round"/>
<path d="M1111.99 49.8847H1101.78C1101.62 49.8847 1101.54 49.8847 1101.48 49.8782C1101.33 49.8615 1101.19 49.8134 1101.06 49.7373C1100.92 49.6611 1100.81 49.5584 1100.72 49.4359C1100.64 49.3134 1100.57 49.1737 1100.54 49.0259C1100.51 48.8781 1100.51 48.7255 1100.54 48.5778C1100.57 48.4821 1100.6 48.3876 1100.63 48.2946C1100.69 48.1281 1100.71 48.0448 1100.75 47.9703C1100.9 47.6017 1101.15 47.283 1101.48 47.0494C1101.8 46.8159 1102.18 46.6766 1102.58 46.6471C1102.66 46.6417 1102.75 46.6417 1102.92 46.6417H1108.75" stroke="#141C24" stroke-width="1.5" stroke-linecap="round" stroke-linejoin="round"/>
<path d="M1108.4 46.6417H1105.11C1103.73 46.6417 1103.04 46.6417 1102.5 46.285C1101.96 45.9283 1101.68 45.2927 1101.14 44.0214L1100.96 43.5955C1100.08 41.5525 1099.64 40.5331 1100.12 39.8034C1100.61 39.0748 1101.72 39.0748 1103.94 39.0748H1109.65C1112.13 39.0748 1113.37 39.0748 1113.84 39.8823C1114.31 40.6898 1113.7 41.7687 1112.46 43.9263L1112.16 44.4635C1111.55 45.5262 1111.24 46.058 1110.74 46.3499C1110.24 46.6417 1109.63 46.6417 1108.4 46.6417Z" stroke="#141C24" stroke-width="1.5" stroke-linecap="round"/>
<path d="M1111.45 53.6681C1112.05 53.6681 1112.53 53.1842 1112.53 52.5871C1112.53 51.9901 1112.05 51.5062 1111.45 51.5062C1110.85 51.5062 1110.37 51.9901 1110.37 52.5871C1110.37 53.1842 1110.85 53.6681 1111.45 53.6681Z" fill="#141C24"/>
<path d="M1101.72 53.6681C1102.32 53.6681 1102.8 53.1842 1102.8 52.5871C1102.8 51.9901 1102.32 51.5062 1101.72 51.5062C1101.13 51.5062 1100.64 51.9901 1100.64 52.5871C1100.64 53.1842 1101.13 53.6681 1101.72 53.6681Z" fill="#141C24"/>
<path d="M1142.18 50L1138.27 44.7841H1137.03V50H1135.28V38.3636H1137.03V43.2784H1137.61L1142.01 38.3636H1144.15L1139.49 43.5739L1144.32 50H1142.18ZM1148.85 50.1761C1148.03 50.1761 1147.32 49.9886 1146.71 49.6136C1146.1 49.2386 1145.62 48.714 1145.29 48.0398C1144.95 47.3655 1144.78 46.5777 1144.78 45.6761C1144.78 44.7708 1144.95 43.9792 1145.29 43.3011C1145.62 42.6231 1146.1 42.0966 1146.71 41.7216C1147.32 41.3466 1148.03 41.1591 1148.85 41.1591C1149.67 41.1591 1150.38 41.3466 1150.99 41.7216C1151.6 42.0966 1152.07 42.6231 1152.41 43.3011C1152.75 43.9792 1152.92 44.7708 1152.92 45.6761C1152.92 46.5777 1152.75 47.3655 1152.41 48.0398C1152.07 48.714 1151.6 49.2386 1150.99 49.6136C1150.38 49.9886 1149.67 50.1761 1148.85 50.1761ZM1148.86 48.75C1149.39 48.75 1149.82 48.6099 1150.17 48.3296C1150.52 48.0492 1150.78 47.6761 1150.95 47.2102C1151.12 46.7443 1151.2 46.2311 1151.2 45.6705C1151.2 45.1136 1151.12 44.6023 1150.95 44.1364C1150.78 43.6667 1150.52 43.2898 1150.17 43.0057C1149.82 42.7216 1149.39 42.5796 1148.86 42.5796C1148.32 42.5796 1147.88 42.7216 1147.53 43.0057C1147.18 43.2898 1146.92 43.6667 1146.75 44.1364C1146.58 44.6023 1146.5 45.1136 1146.5 45.6705C1146.5 46.2311 1146.58 46.7443 1146.75 47.2102C1146.92 47.6761 1147.18 48.0492 1147.53 48.3296C1147.88 48.6099 1148.32 48.75 1148.86 48.75ZM1154.81 53.2727V41.2727H1156.47V42.6875H1156.62C1156.71 42.5057 1156.86 42.2955 1157.04 42.0568C1157.23 41.8182 1157.48 41.6099 1157.81 41.4318C1158.14 41.25 1158.58 41.1591 1159.12 41.1591C1159.83 41.1591 1160.45 41.3371 1161.01 41.6932C1161.56 42.0492 1161.99 42.5625 1162.31 43.233C1162.63 43.9034 1162.79 44.7102 1162.79 45.6534C1162.79 46.5966 1162.63 47.4053 1162.31 48.0796C1162 48.75 1161.57 49.2671 1161.02 49.6307C1160.47 49.9905 1159.84 50.1705 1159.14 50.1705C1158.61 50.1705 1158.17 50.0814 1157.84 49.9034C1157.5 49.7254 1157.24 49.5171 1157.05 49.2784C1156.86 49.0398 1156.72 48.8277 1156.62 48.6421H1156.51V53.2727H1154.81ZM1156.48 45.6364C1156.48 46.25 1156.57 46.7879 1156.75 47.25C1156.92 47.7121 1157.18 48.0739 1157.52 48.3352C1157.86 48.5928 1158.27 48.7216 1158.76 48.7216C1159.26 48.7216 1159.69 48.5871 1160.03 48.3182C1160.37 48.0455 1160.63 47.6761 1160.8 47.2102C1160.98 46.7443 1161.07 46.2197 1161.07 45.6364C1161.07 45.0606 1160.98 44.5436 1160.81 44.0852C1160.64 43.6269 1160.38 43.2652 1160.04 43C1159.69 42.7349 1159.27 42.6023 1158.76 42.6023C1158.26 42.6023 1157.85 42.7292 1157.51 42.983C1157.17 43.2367 1156.91 43.5909 1156.74 44.0455C1156.57 44.5 1156.48 45.0303 1156.48 45.6364ZM1164.17 47.6932H1165.91C1165.93 48.0492 1166.09 48.3239 1166.39 48.5171C1166.7 48.7102 1167.09 48.8068 1167.57 48.8068C1168.06 48.8068 1168.47 48.7027 1168.82 48.4943C1169.16 48.2822 1169.34 47.9546 1169.34 47.5114C1169.34 47.2462 1169.27 47.0152 1169.14 46.8182C1169.01 46.6174 1168.83 46.4621 1168.59 46.3523C1168.35 46.2424 1168.07 46.1875 1167.75 46.1875H1166.33V44.8523H1167.75C1168.23 44.8523 1168.59 44.7424 1168.83 44.5227C1169.07 44.303 1169.19 44.0284 1169.19 43.6989C1169.19 43.3428 1169.06 43.0568 1168.8 42.8409C1168.55 42.6212 1168.19 42.5114 1167.74 42.5114C1167.28 42.5114 1166.89 42.6155 1166.59 42.8239C1166.28 43.0284 1166.12 43.2936 1166.1 43.6193H1164.39C1164.4 43.1307 1164.55 42.7027 1164.83 42.3352C1165.12 41.964 1165.51 41.6761 1165.99 41.4716C1166.48 41.2633 1167.03 41.1591 1167.65 41.1591C1168.3 41.1591 1168.86 41.2633 1169.34 41.4716C1169.81 41.6799 1170.18 41.9678 1170.43 42.3352C1170.69 42.7027 1170.83 43.125 1170.83 43.6023C1170.83 44.0833 1170.68 44.4773 1170.39 44.7841C1170.11 45.0871 1169.74 45.3049 1169.28 45.4375V45.5284C1169.62 45.5511 1169.92 45.6534 1170.18 45.8352C1170.44 46.0171 1170.64 46.2576 1170.79 46.5568C1170.94 46.8561 1171.01 47.1951 1171.01 47.5739C1171.01 48.108 1170.87 48.5701 1170.57 48.9602C1170.28 49.3504 1169.87 49.6515 1169.35 49.8636C1168.84 50.072 1168.25 50.1761 1167.59 50.1761C1166.94 50.1761 1166.37 50.0758 1165.85 49.875C1165.35 49.6705 1164.94 49.3826 1164.64 49.0114C1164.35 48.6402 1164.19 48.2008 1164.17 47.6932ZM1174.43 47.6193L1178.28 41.2727H1180.11V50H1178.44V43.6477L1174.61 50H1172.77V41.2727H1174.43V47.6193ZM1188.31 44.9034V46.375H1183.58V44.9034H1188.31ZM1184.06 41.2727V50H1182.39V41.2727H1184.06ZM1189.49 41.2727V50H1187.84V41.2727H1189.49ZM1194.31 50.1932C1193.75 50.1932 1193.25 50.0909 1192.81 49.8864C1192.36 49.678 1192.01 49.3769 1191.74 48.983C1191.49 48.589 1191.36 48.1061 1191.36 47.5341C1191.36 47.0417 1191.45 46.6364 1191.64 46.3182C1191.83 46 1192.09 45.7481 1192.41 45.5625C1192.73 45.3769 1193.09 45.2368 1193.49 45.1421C1193.89 45.0474 1194.29 44.9754 1194.7 44.9261C1195.23 44.8655 1195.65 44.8163 1195.98 44.7784C1196.3 44.7367 1196.54 44.6705 1196.69 44.5796C1196.84 44.4886 1196.91 44.3409 1196.91 44.1364V44.0966C1196.91 43.6004 1196.77 43.2159 1196.49 42.9432C1196.21 42.6705 1195.8 42.5341 1195.25 42.5341C1194.68 42.5341 1194.23 42.661 1193.9 42.9148C1193.57 43.1648 1193.35 43.4432 1193.22 43.75L1191.62 43.3864C1191.81 42.8561 1192.09 42.428 1192.45 42.1023C1192.82 41.7727 1193.24 41.5341 1193.72 41.3864C1194.2 41.2349 1194.7 41.1591 1195.23 41.1591C1195.58 41.1591 1195.95 41.2008 1196.34 41.2841C1196.73 41.3636 1197.1 41.5114 1197.44 41.7273C1197.78 41.9432 1198.06 42.2519 1198.28 42.6534C1198.5 43.0511 1198.61 43.5682 1198.61 44.2046V50H1196.95V48.8068H1196.89C1196.78 49.0265 1196.61 49.2424 1196.39 49.4546C1196.17 49.6667 1195.89 49.8428 1195.55 49.983C1195.2 50.1231 1194.79 50.1932 1194.31 50.1932ZM1194.68 48.8296C1195.15 48.8296 1195.55 48.7368 1195.88 48.5511C1196.22 48.3655 1196.47 48.1231 1196.65 47.8239C1196.83 47.5208 1196.91 47.197 1196.91 46.8523V45.7273C1196.85 45.7879 1196.74 45.8447 1196.56 45.8977C1196.39 45.947 1196.2 45.9905 1195.98 46.0284C1195.76 46.0625 1195.54 46.0947 1195.34 46.125C1195.13 46.1515 1194.95 46.1742 1194.81 46.1932C1194.48 46.2349 1194.18 46.3049 1193.91 46.4034C1193.64 46.5019 1193.42 46.6439 1193.26 46.8296C1193.1 47.0114 1193.02 47.2538 1193.02 47.5568C1193.02 47.9773 1193.18 48.2955 1193.49 48.5114C1193.8 48.7235 1194.2 48.8296 1194.68 48.8296Z" fill="#344051"/>
</svg>
