<svg width="102" height="40" viewBox="0 0 102 40" fill="none" xmlns="http://www.w3.org/2000/svg">
<path d="M11.76 6.312V16H1.022V6.312H3.052V14.376H5.432V6.312H7.35V14.376H9.744V6.312H11.76ZM21.1132 16H19.0832V12.108C19.0832 10.7827 19.1812 9.54133 19.3772 8.384L16.3252 16H13.8052V6.312H15.8352V10.246C15.8352 11.03 15.8072 11.6833 15.7512 12.206C15.7045 12.7193 15.6345 13.2887 15.5412 13.914L18.6492 6.312H21.1132V16ZM33.6008 11.1C33.6008 12.4907 33.1994 13.5453 32.3968 14.264C31.5941 14.9733 30.4788 15.3513 29.0508 15.398V16.532H27.0488V15.384C25.6021 15.3187 24.4821 14.936 23.6888 14.236C22.8954 13.5267 22.4988 12.4953 22.4988 11.142C22.4988 9.75133 22.9001 8.70133 23.7028 7.992C24.5054 7.27333 25.6208 6.89067 27.0488 6.844V5.794H29.0508V6.858C30.4974 6.92333 31.6174 7.31067 32.4108 8.02C33.2041 8.72 33.6008 9.74667 33.6008 11.1ZM28.9668 14.082C29.8534 14.026 30.4974 13.76 30.8988 13.284C31.3001 12.808 31.5008 12.08 31.5008 11.1C31.5008 10.1387 31.2954 9.42 30.8848 8.944C30.4741 8.468 29.8348 8.20667 28.9668 8.16V14.082ZM24.5988 11.142C24.5988 12.1033 24.8041 12.822 25.2148 13.298C25.6254 13.774 26.2648 14.0353 27.1328 14.082V8.16C26.2461 8.216 25.6021 8.482 25.2008 8.958C24.7994 9.434 24.5988 10.162 24.5988 11.142ZM40.9168 6.312L40.6928 7.922H38.2428V16H36.1848V7.922H33.6088V6.312H40.9168Z" fill="#F4511E"/>
<path d="M4.018 23.312C5.278 23.312 6.25333 23.5733 6.944 24.096C7.644 24.6187 7.994 25.398 7.994 26.434C7.994 27.5167 7.64867 28.3333 6.958 28.884C6.26733 29.4253 5.34333 29.696 4.186 29.696H3.08V33H1.022V23.312H4.018ZM4.018 28.184C4.61533 28.184 5.07267 28.0487 5.39 27.778C5.70733 27.5073 5.866 27.0593 5.866 26.434C5.866 25.342 5.24067 24.796 3.99 24.796H3.08V28.184H4.018ZM11.4062 23.312V33H9.34817V23.312H11.4062ZM19.4834 23.312V24.894L15.1434 31.334H19.5534L19.3294 33H12.7354V31.446L17.1594 24.936H13.1834V23.312H19.4834ZM26.9483 23.312V24.894L22.6083 31.334H27.0183L26.7943 33H20.2003V31.446L24.6243 24.936H20.6483V23.312H26.9483ZM33.5991 33L33.0531 30.83H30.0151L29.4691 33H27.3271L30.3091 23.312H32.8151L35.7831 33H33.5991ZM30.4071 29.304H32.6611L31.5271 24.838L30.4071 29.304Z" fill="#F4511E"/>
<path d="M60.9996 22.6667L59.6663 24M63.333 28.3333L61.6663 30.2267M68.6996 11.5387C64.728 12.373 61.0851 14.3453 58.2153 17.2149C55.3456 20.0844 53.373 23.7271 52.5383 27.6987M70.0663 16.4C68.7049 16.7713 67.5467 17.6682 66.8465 18.8935C66.1464 20.1187 65.9617 21.5719 66.333 22.9333C66.7043 24.2948 67.6012 25.453 68.8264 26.1531C70.0517 26.8532 71.5049 27.038 72.8663 26.6667M74.285 31.6427C74.3485 31.8704 74.3504 32.1109 74.2904 32.3395C74.2304 32.5682 74.1107 32.7767 73.9435 32.9439C73.7764 33.111 73.5678 33.2308 73.3391 33.2907C73.1105 33.3507 72.87 33.3489 72.6423 33.2853L48.6423 26.6187C48.4736 26.5717 48.3158 26.4919 48.1779 26.3839C48.04 26.276 47.9247 26.1419 47.8387 25.9893C47.7526 25.8368 47.6975 25.6688 47.6763 25.4949C47.6552 25.321 47.6686 25.1447 47.7156 24.976C48.9266 20.6163 51.2444 16.6438 54.4439 13.4443C57.6434 10.2448 61.6159 7.927 65.9756 6.71601C66.1443 6.66896 66.3207 6.6556 66.4945 6.67671C66.6684 6.69782 66.8364 6.75298 66.9889 6.83903C67.1415 6.92509 67.2756 7.04035 67.3836 7.17824C67.4916 7.31613 67.5713 7.47395 67.6183 7.64267L74.285 31.6427Z" stroke="#F4511E" stroke-width="2" stroke-linecap="round" stroke-linejoin="round"/>
</svg>
